<svg width="57" height="56" viewBox="0 0 57 56" fill="none" xmlns="http://www.w3.org/2000/svg">
<g clip-path="url(#clip0_1_6)">
<path d="M56.9215 30.0997H46.7404C37.8471 30.0997 30.6379 37.1826 30.6379 45.9197V55.9222C44.674 54.8996 55.8807 43.8896 56.9215 30.0997Z" fill="#E1306C"/>
<path d="M26.3629 55.9222V45.9197C26.3629 37.1826 19.1536 30.0997 10.2604 30.0997H0.0793228C1.12005 43.8896 12.3268 54.8996 26.3629 55.9222Z" fill="#E1306C"/>
<path d="M56.9215 25.8997C55.8807 12.1098 44.674 1.09972 30.6379 0.0772476V10.0797C30.6379 18.8168 37.8471 25.8997 46.7404 25.8997H56.9215Z" fill="#E1306C"/>
<path d="M26.3629 0.0772476C12.3268 1.09972 1.12005 12.1098 0.0793228 25.8997H10.2604C19.1536 25.8997 26.3629 18.8168 26.3629 10.0797V0.0772476Z" fill="#E1306C"/>
<path d="M19.3558 27.9997C23.3066 26.0603 26.5264 22.897 28.5003 19.0155C30.4743 22.897 33.694 26.0603 37.6449 27.9997C33.694 29.939 30.4743 33.1023 28.5003 36.9838C26.5264 33.1023 23.3066 29.939 19.3558 27.9997Z" fill="#833AB4"/>
</g>
<defs>
<clipPath id="clip0_1_6">
<rect width="57" height="56" fill="white"/>
</clipPath>
</defs>
</svg>
